<?xml version="1.0" encoding="UTF-8"?> <svg xmlns="http://www.w3.org/2000/svg" width="4873" height="308" viewBox="0 0 4873 308" fill="none"> <path d="M228.008 193.665C214.651 247.237 160.385 279.84 106.8 266.481C53.2386 253.125 20.6321 198.862 33.9952 145.294C47.3466 91.7165 101.612 59.1112 155.18 72.467C208.761 85.8227 241.365 140.092 228.006 193.666L228.007 193.665L228.008 193.665Z" fill="#F7931A"></path> <path d="M175.1 155.227C177.091 141.92 166.958 134.766 153.102 129.994L157.597 111.967L146.623 109.233L142.247 126.785C139.362 126.066 136.399 125.388 133.454 124.716L137.862 107.048L126.894 104.313L122.397 122.334C120.009 121.791 117.664 121.254 115.389 120.687L115.402 120.631L100.267 116.852L97.3481 128.572C97.3481 128.572 105.49 130.438 105.319 130.553C109.763 131.662 110.566 134.604 110.433 136.935L105.313 157.472C105.619 157.55 106.016 157.662 106.454 157.838C106.088 157.747 105.698 157.648 105.294 157.551L98.117 186.32C97.5739 187.67 96.1954 189.696 93.0883 188.927C93.1982 189.086 85.1118 186.936 85.1118 186.936L79.6631 199.497L93.9447 203.057C96.6016 203.723 99.2052 204.42 101.769 205.076L97.2278 223.309L108.19 226.043L112.687 208.004C115.682 208.816 118.588 209.566 121.433 210.273L116.951 228.228L127.926 230.962L132.467 212.763C151.181 216.304 165.252 214.877 171.175 197.952C175.948 184.325 170.937 176.465 161.092 171.34C168.263 169.686 173.664 164.97 175.104 155.229L175.101 155.226L175.1 155.227ZM150.026 190.384C146.634 204.011 123.689 196.645 116.25 194.797L122.276 170.641C129.715 172.498 153.571 176.173 150.027 190.384L150.026 190.384ZM153.42 155.03C150.326 167.425 131.229 161.128 125.033 159.584L130.497 137.675C136.692 139.22 156.643 142.101 153.421 155.03L153.42 155.03Z" fill="white"></path> <g clip-path="url(#clip0_514_148)"> <path d="M481.703 269.475H510.609L450.453 197.55C428.668 171.517 393.348 171.517 371.547 197.55L311.367 269.475H340.297L386 214.838C392.659 206.913 401.633 202.47 410.982 202.47C420.332 202.47 429.306 206.913 435.965 214.838L481.703 269.475Z" fill="white"></path> <path d="M339.926 69.4745H311L371.547 141.842C393.332 167.875 428.652 167.875 450.453 141.842L511 69.4745H482.094L436 124.555C429.341 132.48 420.367 136.922 411.018 136.922C401.668 136.922 392.694 132.48 386.035 124.555L339.926 69.4745Z" fill="white"></path> </g> <g clip-path="url(#clip1_514_148)"> <path d="M636.107 202.559H653.8C655.845 202.559 657.806 203.431 659.183 204.969L666.36 213.032C667.445 214.238 668.947 214.944 670.574 214.944C672.202 214.944 673.704 214.238 674.789 213.032L680.965 206.091C682.967 203.847 685.888 202.517 688.893 202.517H785.742C788.496 194.745 790.291 186.474 791 177.87H699.575C697.948 177.87 696.445 178.535 695.319 179.699L686.806 188.552C685.763 189.674 684.261 190.298 682.759 190.298H682.425C680.798 190.298 679.295 189.591 678.211 188.386L671.033 180.323C669.656 178.785 667.695 177.912 665.651 177.912L591.042 177.912C591.751 186.474 593.545 194.786 596.299 202.6L636.107 202.559Z" fill="white"></path> <path d="M735.669 126C734.042 126 732.54 126.665 731.413 127.829L722.901 136.682C721.816 137.804 720.355 138.427 718.811 138.427H718.478C716.85 138.427 715.306 137.721 714.263 136.557L707.086 128.494C705.709 126.956 703.748 126.083 701.703 126.083L600.556 126.083C596.758 133.897 594.004 142.251 592.335 151.021L689.435 151.021C691.48 151.021 693.441 151.894 694.818 153.431L701.995 161.411C703.08 162.617 704.582 163.282 706.21 163.282C707.837 163.282 709.381 162.575 710.424 161.411L716.6 154.47C718.603 152.184 721.524 150.896 724.57 150.896H789.623C787.954 142.126 785.2 133.772 781.403 125.958L735.669 126Z" fill="white"></path> <path d="M663.94 229.533C662.312 229.533 660.81 230.198 659.684 231.362L651.171 240.214C650.128 241.337 648.626 241.96 647.082 241.96H646.748C645.121 241.96 643.618 241.253 642.534 240.048L635.356 231.943C633.979 230.406 632.018 229.533 629.974 229.533L610.737 229.533C629.056 253.805 658.181 269.475 690.979 269.475C723.777 269.475 752.945 253.805 771.263 229.533H663.94Z" fill="white"></path> <path d="M702.538 101.27H728.826C730.871 101.27 732.832 102.143 734.209 103.681L741.386 111.744C742.471 112.949 743.973 113.614 745.601 113.614C747.228 113.614 748.772 112.908 749.815 111.744L755.991 104.803C757.994 102.517 760.915 101.229 763.961 101.229H764.378C746.06 81.6941 719.98 69.4331 690.979 69.4331C661.979 69.4331 635.941 81.6941 617.581 101.229L702.538 101.27Z" fill="white"></path> </g> <g clip-path="url(#clip2_514_148)"> <path d="M945.118 266.067C998.465 280.361 1053.3 248.703 1067.59 195.356C1081.89 142.01 1050.23 87.1761 996.882 72.8819C943.535 58.5877 888.702 90.246 874.407 143.593C860.113 196.939 891.771 251.773 945.118 266.067Z" fill="#0AC18E"></path> <path d="M1009.82 145.113C1007.92 132.805 997.392 127.462 983.126 126.083L983.296 107.894L972.235 107.794L972.004 125.915C969.098 125.872 966.146 125.712 963.165 125.754L963.37 107.731L952.308 107.631L952.138 125.821C949.736 125.86 929.799 125.642 929.799 125.642L929.673 137.485C929.673 137.485 937.845 137.389 937.725 137.54C942.237 137.567 943.658 140.208 944.058 142.443L943.625 192.304C943.411 193.692 942.549 195.931 939.445 195.94C939.591 196.084 931.4 195.86 931.4 195.86L929.066 209.082C929.066 209.082 948.819 209.304 951.41 209.341L951.236 227.74L962.298 227.84L962.505 209.318C965.526 209.419 968.48 209.474 971.367 209.486L971.162 227.903L982.224 228.003L982.391 209.628C999.365 210.025 1013.31 202.988 1015.12 186.999C1016.14 177.338 1008.05 167.025 999.869 163.914C1006.27 160.716 1010.69 154.726 1009.82 145.113ZM993.972 184.353C991.952 200.13 970.296 196.324 962.816 196.29L962.839 171.886C970.343 171.926 994.084 170.01 993.972 184.353ZM989.534 149.925C988.09 164.042 969.577 160.763 963.341 160.695L963.338 138.544C969.585 138.667 988.453 136.208 989.534 149.925Z" fill="white"></path> </g> <g clip-path="url(#clip3_514_148)"> <path d="M1205.83 170.196C1205.4 162.173 1211.11 155.304 1218.52 154.842C1218.79 154.842 1219.05 154.842 1219.32 154.842C1226.79 154.842 1232.81 161.365 1232.76 169.445C1232.76 177.526 1226.73 184.049 1219.27 183.991C1212.12 183.991 1206.2 177.93 1205.83 170.196Z" fill="#0033AD"></path> <path d="M1155.59 173.948C1153.19 174.121 1151.11 172.101 1151 169.503C1150.89 166.906 1152.71 164.655 1155.11 164.539C1157.51 164.366 1159.53 166.386 1159.69 168.984C1159.85 171.581 1157.99 173.774 1155.59 173.948Z" fill="#0033AD"></path> <path d="M1204.97 254.814C1207.11 255.968 1207.96 258.854 1206.89 261.163C1205.83 263.472 1203.16 264.395 1201.03 263.241C1198.89 262.086 1198.04 259.258 1199.11 256.949C1200.17 254.583 1202.79 253.602 1204.97 254.814Z" fill="#0033AD"></path> <path d="M1218.63 229.013C1221.93 230.802 1223.27 235.189 1221.61 238.767C1219.96 242.346 1215.91 243.789 1212.6 242C1209.29 240.21 1207.96 235.824 1209.61 232.245C1211.27 228.666 1215.32 227.223 1218.63 229.013Z" fill="#0033AD"></path> <path d="M1172.65 211.292C1175.21 209.503 1178.63 210.253 1180.33 213.024C1181.99 215.795 1181.29 219.489 1178.73 221.336C1176.17 223.125 1172.76 222.375 1171.05 219.604C1169.35 216.833 1170.09 213.082 1172.65 211.292Z" fill="#0033AD"></path> <path d="M1180.81 176.545C1177.08 176.776 1173.93 173.717 1173.72 169.676C1173.51 165.636 1176.33 162.23 1180.07 161.999C1183.8 161.769 1186.95 164.828 1187.16 168.868C1187.37 172.851 1184.55 176.314 1180.81 176.545Z" fill="#0033AD"></path> <path d="M1173.4 127.656C1170.68 126.155 1169.56 122.577 1170.95 119.575C1172.33 116.632 1175.64 115.419 1178.41 116.92C1181.13 118.421 1182.25 122 1180.87 125.001C1179.48 127.945 1176.12 129.157 1173.4 127.656Z" fill="#0033AD"></path> <path d="M1199.53 191.61C1203.21 189.013 1208.12 190.109 1210.47 194.092C1212.87 198.075 1211.85 203.385 1208.17 205.925C1204.49 208.522 1199.59 207.425 1197.24 203.443C1194.84 199.518 1195.85 194.207 1199.53 191.61Z" fill="#0033AD"></path> <path d="M1282.47 229.59C1285.56 227.397 1289.77 228.32 1291.8 231.668C1293.83 235.016 1292.97 239.575 1289.88 241.769C1286.79 243.962 1282.57 243.039 1280.55 239.691C1278.47 236.285 1279.32 231.783 1282.47 229.59Z" fill="#0033AD"></path> <path d="M1296.23 255.275C1298.25 253.832 1300.92 254.467 1302.25 256.66C1303.59 258.854 1303 261.74 1300.97 263.183C1298.95 264.626 1296.28 263.991 1294.95 261.855C1293.67 259.662 1294.25 256.718 1296.23 255.275Z" fill="#0033AD"></path> <path d="M1283.48 184.107C1276.07 184.568 1269.67 178.392 1269.29 170.369C1268.87 162.346 1274.57 155.42 1281.99 155.016C1282.25 155.016 1282.52 155.016 1282.73 155.016C1290.15 155.016 1296.17 161.538 1296.17 169.619C1296.23 177.296 1290.63 183.703 1283.48 184.107Z" fill="#0033AD"></path> <path d="M1223.05 192.649C1225.35 187.743 1229.99 184.626 1235.11 184.626C1242.52 184.626 1248.55 191.148 1248.55 199.229C1248.55 201.48 1248.07 203.731 1247.11 205.809C1243.75 213.024 1235.64 215.91 1229.03 212.274C1222.36 208.58 1219.69 199.806 1223.05 192.649Z" fill="#0033AD"></path> <path d="M1328.6 211.293C1331.32 212.793 1332.39 216.43 1331 219.373C1329.61 222.317 1326.25 223.471 1323.53 221.971C1320.81 220.47 1319.75 216.891 1321.08 213.948C1322.52 211.004 1325.83 209.792 1328.6 211.293Z" fill="#0033AD"></path> <path d="M1294.47 206.675C1290.57 204.539 1288.97 199.402 1290.95 195.189C1292.92 190.975 1297.67 189.244 1301.56 191.379C1305.45 193.515 1307.05 198.652 1305.08 202.866C1303.11 207.079 1298.36 208.753 1294.47 206.675Z" fill="#0033AD"></path> <path d="M1250.47 257.469C1253.51 257.295 1256.12 259.835 1256.33 263.125C1256.55 266.415 1254.15 269.243 1251.11 269.474C1248.07 269.648 1245.45 267.166 1245.24 263.876C1245.08 260.528 1247.43 257.699 1250.47 257.469Z" fill="#0033AD"></path> <path d="M1250.41 219.777C1254.79 219.489 1258.52 223.125 1258.73 227.858C1259 232.591 1255.64 236.631 1251.27 236.862C1246.89 237.151 1243.16 233.515 1242.95 228.782C1242.73 224.049 1246.04 220.008 1250.41 219.777Z" fill="#0033AD"></path> <path d="M1207.53 132.274C1211.43 134.41 1213.03 139.547 1211.05 143.76C1209.08 147.974 1204.33 149.705 1200.44 147.57C1196.55 145.434 1194.95 140.297 1196.92 136.083C1198.89 131.87 1203.64 130.138 1207.53 132.274Z" fill="#0033AD"></path> <path d="M1255.53 207.252C1251.48 200.499 1253.19 191.494 1259.43 187.108C1265.67 182.721 1273.99 184.568 1278.04 191.321C1282.09 198.074 1280.39 207.079 1274.15 211.466C1271.96 213.024 1269.4 213.832 1266.79 213.832C1262.25 213.832 1258.04 211.35 1255.53 207.252Z" fill="#0033AD"></path> <path d="M1278.95 146.3C1275.59 153.515 1267.48 156.401 1260.87 152.764C1254.2 149.128 1251.53 140.354 1254.89 133.197C1258.25 125.982 1266.36 123.096 1272.97 126.732C1279.59 130.311 1282.31 138.969 1279 146.184C1279 146.242 1279 146.242 1278.95 146.3Z" fill="#0033AD"></path> <path d="M1302.47 147.339C1298.79 149.936 1293.88 148.839 1291.53 144.857C1289.13 140.874 1290.15 135.564 1293.83 133.024C1297.51 130.427 1302.41 131.523 1304.76 135.506C1307.16 139.431 1306.15 144.741 1302.47 147.339Z" fill="#0033AD"></path> <path d="M1328.28 169.215C1328.49 173.255 1325.67 176.661 1321.93 176.892C1318.2 177.122 1315.05 174.063 1314.84 170.023C1314.63 165.982 1317.45 162.577 1321.19 162.346C1324.87 162.115 1328.07 165.232 1328.28 169.215Z" fill="#0033AD"></path> <path d="M1346.89 174.41C1344.49 174.583 1342.41 172.563 1342.31 169.965C1342.2 167.368 1344.01 165.117 1346.41 165.001C1348.81 164.828 1350.84 166.848 1351 169.446C1351.11 172.043 1349.29 174.236 1346.89 174.41Z" fill="#0033AD"></path> <path d="M1329.35 127.656C1326.79 129.445 1323.37 128.695 1321.67 125.924C1320.01 123.154 1320.71 119.46 1323.27 117.613C1325.83 115.823 1329.24 116.574 1330.95 119.344C1332.65 122.115 1331.91 125.867 1329.35 127.656Z" fill="#0033AD"></path> <path d="M1205.72 83.6735C1203.69 85.1165 1201.03 84.4816 1199.69 82.3459C1198.36 80.1526 1198.95 77.2666 1200.92 75.8236C1202.95 74.3806 1205.61 75.0155 1206.95 77.1511C1208.33 79.2868 1207.75 82.2305 1205.72 83.6735Z" fill="#0033AD"></path> <path d="M1297.03 84.1354C1294.89 82.981 1294.04 80.095 1295.11 77.7861C1296.17 75.4773 1298.84 74.5538 1300.97 75.7082C1303.11 76.8626 1303.96 79.6909 1302.89 81.9997C1301.83 84.3662 1299.21 85.3475 1297.03 84.1354Z" fill="#0033AD"></path> <path d="M1246.47 131.697C1250.52 138.45 1248.81 147.454 1242.57 151.899C1236.33 156.286 1228.01 154.439 1223.91 147.685C1219.8 140.932 1221.56 131.928 1227.8 127.483C1229.99 125.925 1232.55 125.117 1235.16 125.117C1239.75 125.059 1243.96 127.541 1246.47 131.697Z" fill="#0033AD"></path> <path d="M1219.53 109.359C1216.44 111.552 1212.23 110.629 1210.2 107.281C1208.17 103.933 1209.03 99.3736 1212.12 97.1802C1215.21 94.9868 1219.43 95.9104 1221.45 99.2581C1223.53 102.606 1222.68 107.166 1219.53 109.359Z" fill="#0033AD"></path> <path d="M1250.95 81.4799C1247.91 81.6531 1245.29 79.1134 1245.08 75.8234C1244.87 72.5333 1247.27 69.705 1250.31 69.4742C1253.35 69.301 1255.96 71.783 1256.17 75.073C1256.33 78.4208 1253.99 81.249 1250.95 81.4799Z" fill="#0033AD"></path> <path d="M1251 119.171C1246.63 119.46 1242.89 115.824 1242.68 111.091C1242.41 106.358 1245.77 102.317 1250.15 102.086C1254.52 101.855 1258.25 105.434 1258.47 110.167C1258.73 114.842 1255.37 118.941 1251 119.171Z" fill="#0033AD"></path> <path d="M1283.37 109.936C1280.07 108.089 1278.73 103.702 1280.44 100.124C1282.15 96.5451 1286.2 95.1021 1289.51 96.9492C1292.81 98.7385 1294.15 103.125 1292.49 106.704C1290.79 110.283 1286.73 111.783 1283.37 109.936Z" fill="#0033AD"></path> </g> <g clip-path="url(#clip4_514_148)"> <path d="M1480.99 69.4746L1479.89 74.0323L1479.89 206.275L1480.99 207.614L1530.97 171.329L1480.99 69.4746Z" fill="#343434"></path> <path d="M1480.99 69.4746L1431 171.329L1480.99 207.614L1480.99 143.427L1480.99 69.4746Z" fill="#8C8C8C"></path> <path d="M1480.99 219.236L1480.37 220.159L1480.37 267.266L1480.99 269.473L1531 182.97L1480.99 219.236Z" fill="#3C3C3B"></path> <path d="M1480.99 269.473L1480.99 219.236L1431 182.97L1480.99 269.473Z" fill="#8C8C8C"></path> <path d="M1480.99 207.614L1530.97 171.329L1480.99 143.427L1480.99 207.614Z" fill="#141414"></path> <path d="M1431 171.329L1480.99 207.614L1480.99 143.427L1431 171.329Z" fill="#393939"></path> </g> <g clip-path="url(#clip5_514_148)"> <path d="M1711 258.651C1760.25 258.651 1800.18 218.726 1800.18 169.475C1800.18 120.224 1760.25 80.2978 1711 80.2978C1661.75 80.2978 1621.82 120.224 1621.82 169.475C1621.82 218.726 1661.75 258.651 1711 258.651Z" fill="white"></path> <path d="M1711 69.4746C1691.22 69.4746 1671.89 75.3395 1655.44 86.3276C1639 97.3158 1626.18 112.934 1618.61 131.206C1611.04 149.479 1609.06 169.586 1612.92 188.984C1616.78 208.382 1626.3 226.2 1640.29 240.185C1654.27 254.171 1672.09 263.695 1691.49 267.553C1710.89 271.412 1731 269.431 1749.27 261.863C1767.54 254.294 1783.16 241.477 1794.15 225.032C1805.14 208.587 1811 189.253 1811 169.475C1811.04 156.381 1808.5 143.407 1803.52 131.295C1798.55 119.183 1791.23 108.17 1782 98.8841C1772.77 89.5983 1761.8 82.2217 1749.72 77.1756C1737.63 72.1295 1724.68 69.5127 1711.58 69.4746L1711 69.4746ZM1712.69 172.864L1702.28 207.973L1757.97 207.973C1758.34 207.96 1758.71 208.02 1759.06 208.15C1759.4 208.279 1759.72 208.475 1759.99 208.727C1760.26 208.979 1760.48 209.281 1760.63 209.617C1760.78 209.954 1760.87 210.316 1760.88 210.685L1760.88 211.605L1756.04 228.312C1755.82 229.102 1755.35 229.796 1754.69 230.28C1754.03 230.764 1753.22 231.01 1752.4 230.976L1667.17 230.976L1681.46 182.308L1665.48 187.15L1669.11 176.012L1685.09 171.17L1705.19 102.889C1705.41 102.103 1705.89 101.414 1706.55 100.931C1707.2 100.449 1708.01 100.2 1708.82 100.225L1730.37 100.225C1730.74 100.212 1731.11 100.272 1731.45 100.401C1731.8 100.531 1732.12 100.727 1732.39 100.979C1732.66 101.231 1732.87 101.533 1733.03 101.869C1733.18 102.205 1733.26 102.568 1733.28 102.937L1733.28 103.857L1716.33 161.484L1732.31 156.642L1728.92 168.264L1712.69 172.864Z" fill="#345D9D"></path> </g> <g clip-path="url(#clip6_514_148)"> <path d="M1891 169.465C1891 224.686 1935.77 269.454 1991 269.454C2046.23 269.454 2091 224.686 2091 169.465C2091 114.244 2046.23 69.4746 1991 69.4746C1935.77 69.4746 1891 114.239 1891 169.465Z" fill="white"></path> <path d="M1991 69.4746C2046.21 69.4746 2091.06 114.307 2090.99 169.462C2090.97 180.496 2089.21 191.111 2085.91 201.04L2055.99 201.04L2055.99 116.926L1991 181.91L1926.01 116.926L1926.01 201.042L1896.09 201.042C1892.78 191.113 1891.03 180.498 1891.01 169.463C1890.91 114.251 1935.78 69.4879 1991 69.4879L1991 69.4746Z" fill="#F26822"></path> <path d="M2005.95 196.85L2034.31 168.488L2034.31 221.417L2055.99 221.417L2076.46 221.421C2058.91 250.214 2027.18 269.475 1991 269.475C1954.82 269.475 1923.09 250.21 1905.54 221.417L1947.7 221.417L1947.7 168.488L1976.06 196.85L1991 211.79L2005.95 196.85L2005.95 196.85Z" fill="#4D4D4D"></path> </g> <g clip-path="url(#clip7_514_148)"> <path d="M2338.51 116.828C2337.31 118.368 2335.65 119.266 2333.89 119.266H2174.27C2171.35 119.266 2169.89 114.775 2171.96 112.144L2203.49 71.9129C2204.69 70.373 2206.35 69.4746 2208.11 69.4746H2367.73C2370.65 69.4746 2372.11 73.9661 2370.04 76.5969L2338.51 116.828Z" fill="url(#paint0_linear_514_148)"></path> <path d="M2338.51 267.036C2337.26 268.576 2335.6 269.475 2333.89 269.475H2174.27C2171.35 269.475 2169.89 264.983 2171.96 262.352L2203.49 222.121C2204.69 220.581 2206.35 219.683 2208.11 219.683H2367.73C2370.65 219.683 2372.11 224.175 2370.04 226.805L2338.51 267.036Z" fill="url(#paint1_linear_514_148)"></path> <path d="M2203.49 192.413C2204.69 193.953 2206.35 194.852 2208.11 194.852H2367.73C2370.65 194.852 2372.11 190.36 2370.04 187.729L2338.51 147.498C2337.31 145.958 2335.65 145.06 2333.89 145.06H2174.27C2171.35 145.06 2169.89 149.552 2171.96 152.182L2203.49 192.413Z" fill="url(#paint2_linear_514_148)"></path> </g> <path d="M2668.01 193.665C2654.65 247.237 2600.38 279.84 2546.8 266.481C2493.24 253.125 2460.63 198.862 2474 145.294C2487.35 91.7165 2541.61 59.1112 2595.18 72.467C2648.76 85.8227 2681.37 140.092 2668.01 193.666L2668.01 193.665L2668.01 193.665Z" fill="#F7931A"></path> <path d="M2615.1 155.227C2617.09 141.92 2606.96 134.766 2593.1 129.994L2597.6 111.967L2586.62 109.233L2582.25 126.785C2579.36 126.066 2576.4 125.388 2573.45 124.716L2577.86 107.048L2566.89 104.313L2562.4 122.334C2560.01 121.791 2557.66 121.254 2555.39 120.687L2555.4 120.631L2540.27 116.852L2537.35 128.572C2537.35 128.572 2545.49 130.438 2545.32 130.553C2549.76 131.662 2550.57 134.604 2550.43 136.935L2545.31 157.472C2545.62 157.55 2546.02 157.662 2546.45 157.838C2546.09 157.747 2545.7 157.648 2545.29 157.551L2538.12 186.32C2537.57 187.67 2536.2 189.696 2533.09 188.927C2533.2 189.086 2525.11 186.936 2525.11 186.936L2519.66 199.497L2533.94 203.057C2536.6 203.723 2539.21 204.42 2541.77 205.076L2537.23 223.309L2548.19 226.043L2552.69 208.004C2555.68 208.816 2558.59 209.566 2561.43 210.273L2556.95 228.228L2567.93 230.962L2572.47 212.763C2591.18 216.304 2605.25 214.877 2611.18 197.952C2615.95 184.325 2610.94 176.465 2601.09 171.34C2608.26 169.686 2613.66 164.97 2615.1 155.229L2615.1 155.226L2615.1 155.227ZM2590.03 190.384C2586.63 204.011 2563.69 196.645 2556.25 194.797L2562.28 170.641C2569.72 172.498 2593.57 176.173 2590.03 190.384L2590.03 190.384ZM2593.42 155.03C2590.33 167.425 2571.23 161.128 2565.03 159.584L2570.5 137.675C2576.69 139.22 2596.64 142.101 2593.42 155.03L2593.42 155.03Z" fill="white"></path> <path d="M2921.7 269.475H2950.61L2890.45 197.55C2868.67 171.517 2833.35 171.517 2811.55 197.55L2751.37 269.475H2780.3L2826 214.838C2832.66 206.913 2841.63 202.47 2850.98 202.47C2860.33 202.47 2869.31 206.913 2875.96 214.838L2921.7 269.475Z" fill="white"></path> <path d="M2779.93 69.4745H2751L2811.55 141.842C2833.33 167.875 2868.65 167.875 2890.45 141.842L2951 69.4745H2922.09L2876 124.555C2869.34 132.48 2860.37 136.922 2851.02 136.922C2841.67 136.922 2832.69 132.48 2826.04 124.555L2779.93 69.4745Z" fill="white"></path> <g clip-path="url(#clip8_514_148)"> <path d="M3076.11 202.559H3093.8C3095.84 202.559 3097.81 203.431 3099.18 204.969L3106.36 213.032C3107.44 214.238 3108.95 214.944 3110.57 214.944C3112.2 214.944 3113.7 214.238 3114.79 213.032L3120.96 206.091C3122.97 203.847 3125.89 202.517 3128.89 202.517H3225.74C3228.5 194.745 3230.29 186.474 3231 177.87H3139.58C3137.95 177.87 3136.45 178.535 3135.32 179.699L3126.81 188.552C3125.76 189.674 3124.26 190.298 3122.76 190.298H3122.42C3120.8 190.298 3119.3 189.591 3118.21 188.386L3111.03 180.323C3109.66 178.785 3107.7 177.912 3105.65 177.912L3031.04 177.912C3031.75 186.474 3033.55 194.786 3036.3 202.6L3076.11 202.559Z" fill="white"></path> <path d="M3175.67 126C3174.04 126 3172.54 126.665 3171.41 127.829L3162.9 136.682C3161.82 137.804 3160.36 138.427 3158.81 138.427H3158.48C3156.85 138.427 3155.31 137.721 3154.26 136.557L3147.09 128.494C3145.71 126.956 3143.75 126.083 3141.7 126.083L3040.56 126.083C3036.76 133.897 3034 142.251 3032.34 151.021L3129.44 151.021C3131.48 151.021 3133.44 151.894 3134.82 153.431L3142 161.411C3143.08 162.617 3144.58 163.282 3146.21 163.282C3147.84 163.282 3149.38 162.575 3150.42 161.411L3156.6 154.47C3158.6 152.184 3161.52 150.896 3164.57 150.896H3229.62C3227.95 142.126 3225.2 133.772 3221.4 125.958L3175.67 126Z" fill="white"></path> <path d="M3103.94 229.533C3102.31 229.533 3100.81 230.198 3099.68 231.362L3091.17 240.214C3090.13 241.337 3088.63 241.96 3087.08 241.96H3086.75C3085.12 241.96 3083.62 241.253 3082.53 240.048L3075.36 231.943C3073.98 230.406 3072.02 229.533 3069.97 229.533L3050.74 229.533C3069.06 253.805 3098.18 269.475 3130.98 269.475C3163.78 269.475 3192.94 253.805 3211.26 229.533H3103.94Z" fill="white"></path> <path d="M3142.54 101.27H3168.83C3170.87 101.27 3172.83 102.143 3174.21 103.681L3181.39 111.744C3182.47 112.949 3183.97 113.614 3185.6 113.614C3187.23 113.614 3188.77 112.908 3189.81 111.744L3195.99 104.803C3197.99 102.517 3200.91 101.229 3203.96 101.229H3204.38C3186.06 81.6941 3159.98 69.4331 3130.98 69.4331C3101.98 69.4331 3075.94 81.6941 3057.58 101.229L3142.54 101.27Z" fill="white"></path> </g> <g clip-path="url(#clip9_514_148)"> <path d="M3385.12 266.067C3438.46 280.361 3493.3 248.703 3507.59 195.356C3521.89 142.01 3490.23 87.1761 3436.88 72.8819C3383.54 58.5877 3328.7 90.246 3314.41 143.593C3300.11 196.939 3331.77 251.773 3385.12 266.067Z" fill="#0AC18E"></path> <path d="M3449.82 145.113C3447.92 132.805 3437.39 127.462 3423.13 126.083L3423.3 107.894L3412.23 107.794L3412 125.915C3409.1 125.872 3406.15 125.712 3403.17 125.754L3403.37 107.731L3392.31 107.631L3392.14 125.821C3389.74 125.86 3369.8 125.642 3369.8 125.642L3369.67 137.485C3369.67 137.485 3377.84 137.389 3377.73 137.54C3382.24 137.567 3383.66 140.208 3384.06 142.443L3383.63 192.304C3383.41 193.692 3382.55 195.931 3379.45 195.94C3379.59 196.084 3371.4 195.86 3371.4 195.86L3369.07 209.082C3369.07 209.082 3388.82 209.304 3391.41 209.341L3391.24 227.74L3402.3 227.84L3402.5 209.318C3405.53 209.419 3408.48 209.474 3411.37 209.486L3411.16 227.903L3422.22 228.003L3422.39 209.628C3439.36 210.025 3453.31 202.988 3455.12 186.999C3456.14 177.338 3448.05 167.025 3439.87 163.914C3446.27 160.716 3450.69 154.726 3449.82 145.113ZM3433.97 184.353C3431.95 200.13 3410.3 196.324 3402.82 196.29L3402.84 171.886C3410.34 171.926 3434.08 170.01 3433.97 184.353ZM3429.53 149.925C3428.09 164.042 3409.58 160.763 3403.34 160.695L3403.34 138.544C3409.59 138.667 3428.45 136.208 3429.53 149.925Z" fill="white"></path> </g> <g clip-path="url(#clip10_514_148)"> <path d="M3645.83 170.196C3645.4 162.173 3651.11 155.304 3658.52 154.842C3658.79 154.842 3659.05 154.842 3659.32 154.842C3666.79 154.842 3672.81 161.365 3672.76 169.445C3672.76 177.526 3666.73 184.049 3659.27 183.991C3652.12 183.991 3646.2 177.93 3645.83 170.196Z" fill="#0033AD"></path> <path d="M3595.59 173.948C3593.19 174.121 3591.11 172.101 3591 169.503C3590.89 166.906 3592.71 164.655 3595.11 164.539C3597.51 164.366 3599.53 166.386 3599.69 168.984C3599.85 171.581 3597.99 173.774 3595.59 173.948Z" fill="#0033AD"></path> <path d="M3644.97 254.814C3647.11 255.968 3647.96 258.854 3646.89 261.163C3645.83 263.472 3643.16 264.395 3641.03 263.241C3638.89 262.086 3638.04 259.258 3639.11 256.949C3640.17 254.583 3642.79 253.602 3644.97 254.814Z" fill="#0033AD"></path> <path d="M3658.63 229.013C3661.93 230.802 3663.27 235.189 3661.61 238.767C3659.96 242.346 3655.91 243.789 3652.6 242C3649.29 240.21 3647.96 235.824 3649.61 232.245C3651.27 228.666 3655.32 227.223 3658.63 229.013Z" fill="#0033AD"></path> <path d="M3612.65 211.292C3615.21 209.503 3618.63 210.253 3620.33 213.024C3621.99 215.795 3621.29 219.489 3618.73 221.336C3616.17 223.125 3612.76 222.375 3611.05 219.604C3609.35 216.833 3610.09 213.082 3612.65 211.292Z" fill="#0033AD"></path> <path d="M3620.81 176.545C3617.08 176.776 3613.93 173.717 3613.72 169.676C3613.51 165.636 3616.33 162.23 3620.07 161.999C3623.8 161.769 3626.95 164.828 3627.16 168.868C3627.37 172.851 3624.55 176.314 3620.81 176.545Z" fill="#0033AD"></path> <path d="M3613.4 127.656C3610.68 126.155 3609.56 122.577 3610.95 119.575C3612.33 116.632 3615.64 115.419 3618.41 116.92C3621.13 118.421 3622.25 122 3620.87 125.001C3619.48 127.945 3616.12 129.157 3613.4 127.656Z" fill="#0033AD"></path> <path d="M3639.53 191.61C3643.21 189.013 3648.12 190.109 3650.47 194.092C3652.87 198.075 3651.85 203.385 3648.17 205.925C3644.49 208.522 3639.59 207.425 3637.24 203.443C3634.84 199.518 3635.85 194.207 3639.53 191.61Z" fill="#0033AD"></path> <path d="M3722.47 229.59C3725.56 227.397 3729.77 228.32 3731.8 231.668C3733.83 235.016 3732.97 239.575 3729.88 241.769C3726.79 243.962 3722.57 243.039 3720.55 239.691C3718.47 236.285 3719.32 231.783 3722.47 229.59Z" fill="#0033AD"></path> <path d="M3736.23 255.275C3738.25 253.832 3740.92 254.467 3742.25 256.66C3743.59 258.854 3743 261.74 3740.97 263.183C3738.95 264.626 3736.28 263.991 3734.95 261.855C3733.67 259.662 3734.25 256.718 3736.23 255.275Z" fill="#0033AD"></path> <path d="M3723.48 184.107C3716.07 184.568 3709.67 178.392 3709.29 170.369C3708.87 162.346 3714.57 155.42 3721.99 155.016C3722.25 155.016 3722.52 155.016 3722.73 155.016C3730.15 155.016 3736.17 161.538 3736.17 169.619C3736.23 177.296 3730.63 183.703 3723.48 184.107Z" fill="#0033AD"></path> <path d="M3663.05 192.649C3665.35 187.743 3669.99 184.626 3675.11 184.626C3682.52 184.626 3688.55 191.148 3688.55 199.229C3688.55 201.48 3688.07 203.731 3687.11 205.809C3683.75 213.024 3675.64 215.91 3669.03 212.274C3662.36 208.58 3659.69 199.806 3663.05 192.649Z" fill="#0033AD"></path> <path d="M3768.6 211.293C3771.32 212.793 3772.39 216.43 3771 219.373C3769.61 222.317 3766.25 223.471 3763.53 221.971C3760.81 220.47 3759.75 216.891 3761.08 213.948C3762.52 211.004 3765.83 209.792 3768.6 211.293Z" fill="#0033AD"></path> <path d="M3734.47 206.675C3730.57 204.539 3728.97 199.402 3730.95 195.189C3732.92 190.975 3737.67 189.244 3741.56 191.379C3745.45 193.515 3747.05 198.652 3745.08 202.866C3743.11 207.079 3738.36 208.753 3734.47 206.675Z" fill="#0033AD"></path> <path d="M3690.47 257.469C3693.51 257.295 3696.12 259.835 3696.33 263.125C3696.55 266.415 3694.15 269.243 3691.11 269.474C3688.07 269.648 3685.45 267.166 3685.24 263.876C3685.08 260.528 3687.43 257.699 3690.47 257.469Z" fill="#0033AD"></path> <path d="M3690.41 219.777C3694.79 219.489 3698.52 223.125 3698.73 227.858C3699 232.591 3695.64 236.631 3691.27 236.862C3686.89 237.151 3683.16 233.515 3682.95 228.782C3682.73 224.049 3686.04 220.008 3690.41 219.777Z" fill="#0033AD"></path> <path d="M3647.53 132.274C3651.43 134.41 3653.03 139.547 3651.05 143.76C3649.08 147.974 3644.33 149.705 3640.44 147.57C3636.55 145.434 3634.95 140.297 3636.92 136.083C3638.89 131.87 3643.64 130.138 3647.53 132.274Z" fill="#0033AD"></path> <path d="M3695.53 207.252C3691.48 200.499 3693.19 191.494 3699.43 187.108C3705.67 182.721 3713.99 184.568 3718.04 191.321C3722.09 198.074 3720.39 207.079 3714.15 211.466C3711.96 213.024 3709.4 213.832 3706.79 213.832C3702.25 213.832 3698.04 211.35 3695.53 207.252Z" fill="#0033AD"></path> <path d="M3718.95 146.3C3715.59 153.515 3707.48 156.401 3700.87 152.764C3694.2 149.128 3691.53 140.354 3694.89 133.197C3698.25 125.982 3706.36 123.096 3712.97 126.732C3719.59 130.311 3722.31 138.969 3719 146.184C3719 146.242 3719 146.242 3718.95 146.3Z" fill="#0033AD"></path> <path d="M3742.47 147.339C3738.79 149.936 3733.88 148.839 3731.53 144.857C3729.13 140.874 3730.15 135.564 3733.83 133.024C3737.51 130.427 3742.41 131.523 3744.76 135.506C3747.16 139.431 3746.15 144.741 3742.47 147.339Z" fill="#0033AD"></path> <path d="M3768.28 169.215C3768.49 173.255 3765.67 176.661 3761.93 176.892C3758.2 177.122 3755.05 174.063 3754.84 170.023C3754.63 165.982 3757.45 162.577 3761.19 162.346C3764.87 162.115 3768.07 165.232 3768.28 169.215Z" fill="#0033AD"></path> <path d="M3786.89 174.41C3784.49 174.583 3782.41 172.563 3782.31 169.965C3782.2 167.368 3784.01 165.117 3786.41 165.001C3788.81 164.828 3790.84 166.848 3791 169.446C3791.11 172.043 3789.29 174.236 3786.89 174.41Z" fill="#0033AD"></path> <path d="M3769.35 127.656C3766.79 129.445 3763.37 128.695 3761.67 125.924C3760.01 123.154 3760.71 119.46 3763.27 117.613C3765.83 115.823 3769.24 116.574 3770.95 119.344C3772.65 122.115 3771.91 125.867 3769.35 127.656Z" fill="#0033AD"></path> <path d="M3645.72 83.6735C3643.69 85.1165 3641.03 84.4816 3639.69 82.3459C3638.36 80.1526 3638.95 77.2666 3640.92 75.8236C3642.95 74.3806 3645.61 75.0155 3646.95 77.1511C3648.33 79.2868 3647.75 82.2305 3645.72 83.6735Z" fill="#0033AD"></path> <path d="M3737.03 84.1354C3734.89 82.981 3734.04 80.095 3735.11 77.7861C3736.17 75.4773 3738.84 74.5538 3740.97 75.7082C3743.11 76.8626 3743.96 79.6909 3742.89 81.9997C3741.83 84.3662 3739.21 85.3475 3737.03 84.1354Z" fill="#0033AD"></path> <path d="M3686.47 131.697C3690.52 138.45 3688.81 147.454 3682.57 151.899C3676.33 156.286 3668.01 154.439 3663.91 147.685C3659.8 140.932 3661.56 131.928 3667.8 127.483C3669.99 125.925 3672.55 125.117 3675.16 125.117C3679.75 125.059 3683.96 127.541 3686.47 131.697Z" fill="#0033AD"></path> <path d="M3659.53 109.359C3656.44 111.552 3652.23 110.629 3650.2 107.281C3648.17 103.933 3649.03 99.3736 3652.12 97.1802C3655.21 94.9868 3659.43 95.9104 3661.45 99.2581C3663.53 102.606 3662.68 107.166 3659.53 109.359Z" fill="#0033AD"></path> <path d="M3690.95 81.4799C3687.91 81.6531 3685.29 79.1134 3685.08 75.8234C3684.87 72.5333 3687.27 69.705 3690.31 69.4742C3693.35 69.301 3695.96 71.783 3696.17 75.073C3696.33 78.4208 3693.99 81.249 3690.95 81.4799Z" fill="#0033AD"></path> <path d="M3691 119.171C3686.63 119.46 3682.89 115.824 3682.68 111.091C3682.41 106.358 3685.77 102.317 3690.15 102.086C3694.52 101.855 3698.25 105.434 3698.47 110.167C3698.73 114.842 3695.37 118.941 3691 119.171Z" fill="#0033AD"></path> <path d="M3723.37 109.936C3720.07 108.089 3718.73 103.702 3720.44 100.124C3722.15 96.5451 3726.2 95.1021 3729.51 96.9492C3732.81 98.7385 3734.15 103.125 3732.49 106.704C3730.79 110.283 3726.73 111.783 3723.37 109.936Z" fill="#0033AD"></path> </g> <g clip-path="url(#clip11_514_148)"> <path d="M3920.99 69.4746L3919.89 74.0323L3919.89 206.275L3920.99 207.614L3970.97 171.329L3920.99 69.4746Z" fill="#343434"></path> <path d="M3920.99 69.4746L3871 171.329L3920.99 207.614L3920.99 143.427L3920.99 69.4746Z" fill="#8C8C8C"></path> <path d="M3920.99 219.236L3920.37 220.159L3920.37 267.266L3920.99 269.473L3971 182.97L3920.99 219.236Z" fill="#3C3C3B"></path> <path d="M3920.99 269.473L3920.99 219.236L3871 182.97L3920.99 269.473Z" fill="#8C8C8C"></path> <path d="M3920.99 207.614L3970.97 171.329L3920.99 143.427L3920.99 207.614Z" fill="#141414"></path> <path d="M3871 171.329L3920.99 207.614L3920.99 143.427L3871 171.329Z" fill="#393939"></path> </g> <g clip-path="url(#clip12_514_148)"> <path d="M4151 258.651C4200.25 258.651 4240.18 218.726 4240.18 169.475C4240.18 120.224 4200.25 80.2978 4151 80.2978C4101.75 80.2978 4061.82 120.224 4061.82 169.475C4061.82 218.726 4101.75 258.651 4151 258.651Z" fill="white"></path> <path d="M4151 69.4746C4131.22 69.4746 4111.89 75.3395 4095.44 86.3276C4079 97.3158 4066.18 112.934 4058.61 131.206C4051.04 149.479 4049.06 169.586 4052.92 188.984C4056.78 208.382 4066.3 226.2 4080.29 240.185C4094.27 254.171 4112.09 263.695 4131.49 267.553C4150.89 271.412 4171 269.431 4189.27 261.863C4207.54 254.294 4223.16 241.477 4234.15 225.032C4245.14 208.587 4251 189.253 4251 169.475C4251.04 156.381 4248.5 143.407 4243.52 131.295C4238.55 119.183 4231.23 108.17 4222 98.8841C4212.77 89.5983 4201.8 82.2217 4189.72 77.1756C4177.63 72.1295 4164.68 69.5127 4151.58 69.4746L4151 69.4746ZM4152.69 172.864L4142.28 207.973L4197.97 207.973C4198.34 207.96 4198.71 208.02 4199.06 208.15C4199.4 208.279 4199.72 208.475 4199.99 208.727C4200.26 208.979 4200.48 209.281 4200.63 209.617C4200.78 209.954 4200.87 210.316 4200.88 210.685L4200.88 211.605L4196.04 228.312C4195.82 229.102 4195.35 229.796 4194.69 230.28C4194.03 230.764 4193.22 231.01 4192.4 230.976L4107.17 230.976L4121.46 182.308L4105.48 187.15L4109.11 176.012L4125.09 171.17L4145.19 102.889C4145.41 102.103 4145.89 101.414 4146.55 100.931C4147.2 100.449 4148.01 100.2 4148.82 100.225L4170.37 100.225C4170.74 100.212 4171.11 100.272 4171.45 100.401C4171.8 100.531 4172.12 100.727 4172.39 100.979C4172.66 101.231 4172.87 101.533 4173.03 101.869C4173.18 102.205 4173.26 102.568 4173.28 102.937L4173.28 103.857L4156.33 161.484L4172.31 156.642L4168.92 168.264L4152.69 172.864Z" fill="#345D9D"></path> </g> <g clip-path="url(#clip13_514_148)"> <path d="M4331 169.465C4331 224.686 4375.77 269.454 4431 269.454C4486.23 269.454 4531 224.686 4531 169.465C4531 114.244 4486.23 69.4746 4431 69.4746C4375.77 69.4746 4331 114.239 4331 169.465Z" fill="white"></path> <path d="M4431 69.4746C4486.21 69.4746 4531.06 114.307 4530.99 169.462C4530.97 180.496 4529.21 191.111 4525.91 201.04L4495.99 201.04L4495.99 116.926L4431 181.91L4366.01 116.926L4366.01 201.042L4336.09 201.042C4332.78 191.113 4331.03 180.498 4331.01 169.463C4330.91 114.251 4375.78 69.4879 4431 69.4879L4431 69.4746Z" fill="#F26822"></path> <path d="M4445.95 196.85L4474.31 168.488L4474.31 221.417L4495.99 221.417L4516.46 221.421C4498.9 250.214 4467.18 269.475 4431 269.475C4394.82 269.475 4363.09 250.21 4345.54 221.417L4387.7 221.417L4387.7 168.488L4416.06 196.85L4431 211.79L4445.95 196.85L4445.95 196.85Z" fill="#4D4D4D"></path> </g> <g clip-path="url(#clip14_514_148)"> <path d="M4778.51 116.828C4777.31 118.368 4775.65 119.266 4773.89 119.266H4614.27C4611.35 119.266 4609.89 114.775 4611.96 112.144L4643.49 71.9129C4644.69 70.373 4646.35 69.4746 4648.11 69.4746H4807.73C4810.65 69.4746 4812.11 73.9661 4810.04 76.5969L4778.51 116.828Z" fill="url(#paint3_linear_514_148)"></path> <path d="M4778.51 267.036C4777.26 268.576 4775.6 269.475 4773.89 269.475H4614.27C4611.35 269.475 4609.89 264.983 4611.96 262.352L4643.49 222.121C4644.69 220.581 4646.35 219.683 4648.11 219.683H4807.73C4810.65 219.683 4812.11 224.175 4810.04 226.805L4778.51 267.036Z" fill="url(#paint4_linear_514_148)"></path> <path d="M4643.49 192.413C4644.69 193.953 4646.35 194.852 4648.11 194.852H4807.73C4810.65 194.852 4812.11 190.36 4810.04 187.729L4778.51 147.498C4777.31 145.958 4775.65 145.06 4773.89 145.06H4614.27C4611.35 145.06 4609.89 149.552 4611.96 152.182L4643.49 192.413Z" fill="url(#paint5_linear_514_148)"></path> </g> <defs> <linearGradient id="paint0_linear_514_148" x1="2189.52" y1="293.508" x2="2348.03" y2="55.5428" gradientUnits="userSpaceOnUse"> <stop stop-color="#00FFA3"></stop> <stop offset="1" stop-color="#DC1FFF"></stop> </linearGradient> <linearGradient id="paint1_linear_514_148" x1="2237.82" y1="325.683" x2="2396.34" y2="87.7186" gradientUnits="userSpaceOnUse"> <stop stop-color="#00FFA3"></stop> <stop offset="1" stop-color="#DC1FFF"></stop> </linearGradient> <linearGradient id="paint2_linear_514_148" x1="2213.82" y1="309.698" x2="2372.34" y2="71.7331" gradientUnits="userSpaceOnUse"> <stop stop-color="#00FFA3"></stop> <stop offset="1" stop-color="#DC1FFF"></stop> </linearGradient> <linearGradient id="paint3_linear_514_148" x1="4629.52" y1="293.508" x2="4788.03" y2="55.5428" gradientUnits="userSpaceOnUse"> <stop stop-color="#00FFA3"></stop> <stop offset="1" stop-color="#DC1FFF"></stop> </linearGradient> <linearGradient id="paint4_linear_514_148" x1="4677.82" y1="325.683" x2="4836.34" y2="87.7186" gradientUnits="userSpaceOnUse"> <stop stop-color="#00FFA3"></stop> <stop offset="1" stop-color="#DC1FFF"></stop> </linearGradient> <linearGradient id="paint5_linear_514_148" x1="4653.82" y1="309.698" x2="4812.34" y2="71.7331" gradientUnits="userSpaceOnUse"> <stop stop-color="#00FFA3"></stop> <stop offset="1" stop-color="#DC1FFF"></stop> </linearGradient> <clipPath id="clip0_514_148"> <rect width="200" height="200" fill="white" transform="matrix(1 0 0 -1 311 269.475)"></rect> </clipPath> <clipPath id="clip1_514_148"> <rect width="200" height="200" fill="white" transform="matrix(-1 0 0 -1 791 269.475)"></rect> </clipPath> <clipPath id="clip2_514_148"> <rect width="200" height="200" fill="white" transform="translate(900.289 47) rotate(15)"></rect> </clipPath> <clipPath id="clip3_514_148"> <rect width="200" height="200" fill="white" transform="matrix(1 0 0 -1 1151 269.475)"></rect> </clipPath> <clipPath id="clip4_514_148"> <rect width="100" height="200" fill="white" transform="translate(1431 69.4746)"></rect> </clipPath> <clipPath id="clip5_514_148"> <rect width="200" height="200" fill="white" transform="translate(1611 69.4746)"></rect> </clipPath> <clipPath id="clip6_514_148"> <rect width="200" height="200" fill="white" transform="matrix(-1 -8.74228e-08 -8.74228e-08 1 2091 69.4746)"></rect> </clipPath> <clipPath id="clip7_514_148"> <rect width="200" height="200" fill="white" transform="matrix(-1 0 0 -1 2371 269.475)"></rect> </clipPath> <clipPath id="clip8_514_148"> <rect width="200" height="200" fill="white" transform="matrix(-1 0 0 -1 3231 269.475)"></rect> </clipPath> <clipPath id="clip9_514_148"> <rect width="200" height="200" fill="white" transform="translate(3340.29 47) rotate(15)"></rect> </clipPath> <clipPath id="clip10_514_148"> <rect width="200" height="200" fill="white" transform="matrix(1 0 0 -1 3591 269.475)"></rect> </clipPath> <clipPath id="clip11_514_148"> <rect width="100" height="200" fill="white" transform="translate(3871 69.4746)"></rect> </clipPath> <clipPath id="clip12_514_148"> <rect width="200" height="200" fill="white" transform="translate(4051 69.4746)"></rect> </clipPath> <clipPath id="clip13_514_148"> <rect width="200" height="200" fill="white" transform="matrix(-1 -8.74228e-08 -8.74228e-08 1 4531 69.4746)"></rect> </clipPath> <clipPath id="clip14_514_148"> <rect width="200" height="200" fill="white" transform="matrix(-1 0 0 -1 4811 269.475)"></rect> </clipPath> </defs> </svg> 