<?xml version="1.0" encoding="UTF-8"?> <!-- Generator: Adobe Illustrator 28.0.0, SVG Export Plug-In . SVG Version: 6.00 Build 0) --> <svg xmlns="http://www.w3.org/2000/svg" xmlns:xlink="http://www.w3.org/1999/xlink" id="Capa_2" x="0px" y="0px" viewBox="0 0 135.2 145.9" style="enable-background:new 0 0 135.2 145.9;" xml:space="preserve"> <style type="text/css"> .st0{fill:url(#SVGID_1_);} .st1{fill:url(#SVGID_00000131368799724638900680000015200953085105017008_);} .st2{fill:url(#SVGID_00000169530882795266373940000009981385399061532311_);} .st3{fill:url(#SVGID_00000123436765252981989870000017285799553919418292_);} .st4{fill:url(#SVGID_00000156580217953865563490000015351260939280726196_);} .st5{fill:url(#SVGID_00000032627452096830946880000004472422224117784763_);} .st6{fill:url(#SVGID_00000045608496850424618540000005181305289014016912_);} .st7{fill:url(#SVGID_00000169538711362498394550000012397103236990716583_);} .st8{fill:url(#SVGID_00000013152160312836222040000009702181448463877506_);} .st9{fill:url(#SVGID_00000104702875032016139330000012587620910276829336_);} .st10{fill:url(#SVGID_00000062165947422917781780000015797637731752599734_);} </style> <g> <linearGradient id="SVGID_1_" gradientUnits="userSpaceOnUse" x1="-82.7484" y1="1281.2883" x2="-8.0873" y2="1340.9413" gradientTransform="matrix(0.9218 0.3877 0.3877 -0.9218 -392.9417 1260.5845)"> <stop offset="0" style="stop-color:#E9A86B"></stop> <stop offset="4.000000e-02" style="stop-color:#E79F6D"></stop> <stop offset="0.32" style="stop-color:#E06781"></stop> <stop offset="0.46" style="stop-color:#DD5289"></stop> <stop offset="1" style="stop-color:#553398"></stop> </linearGradient> <path class="st0" d="M109.4,7.1c-6.6-2.6-13.9-2.7-21-2.2c-14.5,1.2-28.9,5.4-41.1,13.2c5.6-1.7,11.5-2.8,17.3-3.3 c-15.4,2.3-29.6,11.4-38,24.3c-2.3,3.6-4.2,7.7-3.5,11.9c1,5.3,6,8.9,11.1,10.9c10.5,4.2,23,3.8,33.2-1.3c-6.9,0.3-13.8-1-20.1-3.7 c-2.3-1-4.7-2.4-5.4-4.8c-0.4-1.3-0.2-2.6,0.1-3.9c1.7-7.2,7-13.6,14-16.7C46.9,34.2,40.4,41.8,34.6,49 c8.5-16.1,27.2-26.4,45.7-25.5c4.5,0.2,9.1,1.1,13.1,3.4s7.1,6,7.8,10.4c1.1-2.7,1.1-5.8,0.1-8.5c5.3,9.3,1.3,22.5-8.3,27.4 c5.9-3,12-3.8,17.5-8c5.3-4,9.5-9.1,12.6-14.8c2.3-4.2,4-7.8,1.9-12.5C122.2,14.6,115.8,9.5,109.4,7.1L109.4,7.1z"></path> <linearGradient id="SVGID_00000098205502939443513450000001731500918288456070_" gradientUnits="userSpaceOnUse" x1="0.4951" y1="1344.4823" x2="-65.1724" y2="1239.6248" gradientTransform="matrix(0.9218 0.3877 0.3877 -0.9218 -392.9417 1260.5845)"> <stop offset="0" style="stop-color:#E9A86B"></stop> <stop offset="4.000000e-02" style="stop-color:#E79F6D"></stop> <stop offset="0.32" style="stop-color:#E06781"></stop> <stop offset="0.46" style="stop-color:#DD5289"></stop> <stop offset="1" style="stop-color:#553398"></stop> </linearGradient> <path style="fill:url(#SVGID_00000098205502939443513450000001731500918288456070_);" d="M124.6,49.9c3.6-4.9,6.6-10.5,7-16.5 c1-13.1-11-24.8-24.3-27.1c5.1,3.4,7.3,10.1,6.6,16.1c-0.7,6-3.8,11.6-7.3,16.5C89.7,62.6,59.9,77,30.3,75.8 c5.4,2.2,14.5,6.5,26.1,6c8.7-0.4,17-1.5,25.4-3.6C98.8,73.9,114.4,63.9,124.6,49.9L124.6,49.9z"></path> <linearGradient id="SVGID_00000007412014703979538580000009069586738899726743_" gradientUnits="userSpaceOnUse" x1="-105.1477" y1="-504.7555" x2="-11.7039" y2="-504.7555" gradientTransform="matrix(0.9777 -0.21 -0.21 -0.9777 35.5543 -426.2015)"> <stop offset="0" style="stop-color:#E9A86B"></stop> <stop offset="4.000000e-02" style="stop-color:#E79F6D"></stop> <stop offset="0.32" style="stop-color:#E06781"></stop> <stop offset="0.46" style="stop-color:#DD5289"></stop> <stop offset="1" style="stop-color:#553398"></stop> </linearGradient> <path style="fill:url(#SVGID_00000007412014703979538580000009069586738899726743_);" d="M90.5,80c-16.6,6.7-35.2,7.9-52.9,4.2 C50,94,63.4,95,76.9,95.6c13.6,0.6,30.7-5.7,36.6-14.1c-9.4,5-20.2,7.2-30.9,6.6c11-2.2,34.3-10.2,44.1-33.5 C114.5,68.7,98.3,76.9,90.5,80L90.5,80z"></path> <linearGradient id="SVGID_00000024684446750917481130000015663297568537117056_" gradientUnits="userSpaceOnUse" x1="18.8078" y1="120.9769" x2="41.3686" y2="120.9769" gradientTransform="matrix(1 0 0 -1 0 184)"> <stop offset="0" style="stop-color:#E9A86B"></stop> <stop offset="4.000000e-02" style="stop-color:#E79F6D"></stop> <stop offset="0.32" style="stop-color:#E06781"></stop> <stop offset="0.46" style="stop-color:#DD5289"></stop> <stop offset="1" style="stop-color:#553398"></stop> </linearGradient> <path style="fill:url(#SVGID_00000024684446750917481130000015663297568537117056_);" d="M22.8,61.5c2.4,2.9,5.4,5.4,8.9,6.9 c3.1,1.3,6.4,1.7,9.7,2.1c-5.1,1.7-10.9,1.1-15.8-1.1c-2.3-1-4.4-2.5-5.7-4.6c-1.9-3.2-1.3-7.7,1.5-10.2c-0.4,0.3-0.2,2.7-0.1,3.3 C21.4,59.3,21.9,60.4,22.8,61.5L22.8,61.5z"></path> <linearGradient id="SVGID_00000149370531287697709470000002843267046426892416_" gradientUnits="userSpaceOnUse" x1="103.478" y1="83.8372" x2="41.3774" y2="78.6479" gradientTransform="matrix(1 0 0 -1 0 184)"> <stop offset="0" style="stop-color:#E9A86B"></stop> <stop offset="4.000000e-02" style="stop-color:#E79F6D"></stop> <stop offset="0.32" style="stop-color:#E06781"></stop> <stop offset="0.46" style="stop-color:#DD5289"></stop> <stop offset="1" style="stop-color:#553398"></stop> </linearGradient> <path style="fill:url(#SVGID_00000149370531287697709470000002843267046426892416_);" d="M53.6,97.4c8.5,2.3,17.3,4,26.2,3.8 c8.8-0.2,17.8-2.5,24.9-7.7C101.5,100.3,94,104,87,107.2c5.7,0.6,11.6-0.6,16.6-3.4c-5.2,9.8-17.1,14.8-28.5,15.3 c-6.4,0.3-12.8-0.6-18.8-2.6c6.5,1.8,13.7,1.1,19.7-1.9c-8.5,0.9-17-2.2-23.9-7.1c-6.9-4.9-12.3-11.6-17.1-18.4 C37.2,91,48.4,96,53.6,97.4L53.6,97.4z"></path> <linearGradient id="SVGID_00000068638885651798362820000015114341233083064461_" gradientUnits="userSpaceOnUse" x1="40.6666" y1="75.9462" x2="62.2111" y2="75.9462" gradientTransform="matrix(1 0 0 -1 0 184)"> <stop offset="0" style="stop-color:#E9A86B"></stop> <stop offset="4.000000e-02" style="stop-color:#E79F6D"></stop> <stop offset="0.32" style="stop-color:#E06781"></stop> <stop offset="0.46" style="stop-color:#DD5289"></stop> <stop offset="1" style="stop-color:#553398"></stop> </linearGradient> <path style="fill:url(#SVGID_00000068638885651798362820000015114341233083064461_);" d="M62.2,115.6c-4.8-0.1-9.7-1.1-13.8-3.6 c-4.1-2.5-7.2-6.7-7.8-11.4c2.6,3.5,6,6.6,9.6,9.1c1.9,1.3,3.8,2.4,5.9,3.5C57.7,113.9,60.4,115.5,62.2,115.6z"></path> <linearGradient id="SVGID_00000060728209998253692760000003769497190368320679_" gradientUnits="userSpaceOnUse" x1="50.8174" y1="54.359" x2="81.8677" y2="54.359" gradientTransform="matrix(1 0 0 -1 0 184)"> <stop offset="0" style="stop-color:#E9A86B"></stop> <stop offset="4.000000e-02" style="stop-color:#E79F6D"></stop> <stop offset="0.32" style="stop-color:#E06781"></stop> <stop offset="0.46" style="stop-color:#DD5289"></stop> <stop offset="1" style="stop-color:#553398"></stop> </linearGradient> <path style="fill:url(#SVGID_00000060728209998253692760000003769497190368320679_);" d="M81.9,122.7c-2,1.8-4.4,3.2-6.9,4.2 c1.9,0.5,4,0.5,6,0.2c-2.6,3.6-6.5,6.4-10.9,7.7c0.5,0.6,1.3,0.9,2.1,0.9c-1.2,2.5-3.6,4.5-6.3,5.2l3.3-4c-3.2,0.5-6.5,0-9.4-1.5 c4-0.5,7.8-2.6,10.3-5.7c-7.6-0.3-15-4.3-19.3-10.5c3.1,1.8,6.2,3.4,9.4,4.9c-2.7-1.6-5.1-3.6-7.1-5.9c4.2,1.8,8.5,2.7,13,3.8 C71.2,123.4,76.7,124.1,81.9,122.7L81.9,122.7z"></path> <linearGradient id="SVGID_00000047043694797343049840000013459724344424774036_" gradientUnits="userSpaceOnUse" x1="37.2227" y1="126.1587" x2="111.6371" y2="43.5098" gradientTransform="matrix(1 0 0 -1 0 184)"> <stop offset="0" style="stop-color:#E9A86B"></stop> <stop offset="4.000000e-02" style="stop-color:#E79F6D"></stop> <stop offset="0.32" style="stop-color:#E06781"></stop> <stop offset="0.46" style="stop-color:#DD5289"></stop> <stop offset="1" style="stop-color:#553398"></stop> </linearGradient> <path style="fill:url(#SVGID_00000047043694797343049840000013459724344424774036_);" d="M39.7,94.7c16.1,7.8,33.6,13,51.4,15.4 c5.7,0.8,11.7,1.2,17.1-0.8c-8.6,2.3-17.7-0.6-26.1-3.4c5.3,1,10.7,1.7,16.2,2c4.1,0.2,8.5,0.2,11.9-2.1S115,98,112,95.3 c2.6,2.6,5.4,5.5,5.7,9.1c0.3,3.9-2.4,7.5-5.9,9.4c-3.5,1.8-7.6,2.2-11.6,2.3c-20.1,0.4-39.7-6.2-58.4-13.7 c7,2.9,14.5,4.9,22.1,5.9c-16.6-5.5-34.1-11.6-45-25c-2.9-3.6-5.4-8.1-4.5-12.6c0.1,3.9,2.1,7.7,5.2,10.2c-1.7-2.6-1.8-6.1-0.1-8.8 c-2.6,4.2,3.3,9.7,5.6,12.5C29,89.1,34.3,92.1,39.7,94.7L39.7,94.7z"></path> <linearGradient id="SVGID_00000114780365056994815120000011119596557587953568_" gradientUnits="userSpaceOnUse" x1="108.7034" y1="89.387" x2="120.3817" y2="89.387" gradientTransform="matrix(1 0 0 -1 0 184)"> <stop offset="0" style="stop-color:#E9A86B"></stop> <stop offset="4.000000e-02" style="stop-color:#E79F6D"></stop> <stop offset="0.32" style="stop-color:#E06781"></stop> <stop offset="0.46" style="stop-color:#DD5289"></stop> <stop offset="1" style="stop-color:#553398"></stop> </linearGradient> <path style="fill:url(#SVGID_00000114780365056994815120000011119596557587953568_);" d="M120.4,101.6c-1.5-3.8-4.2-7.2-7.7-9.6 c-0.9-0.6-4.4-2.6-3.9-4c0.4-1.4,3.4,1.1,4.2,1.7C116.7,92.6,119.3,97.1,120.4,101.6L120.4,101.6z"></path> <linearGradient id="SVGID_00000088135346858993645840000016012221151819614123_" gradientUnits="userSpaceOnUse" x1="1.8816" y1="851.1815" x2="33.7433" y2="851.1815" gradientTransform="matrix(0.9679 0.2512 0.2512 -0.9679 -213.1095 896.4623)"> <stop offset="0" style="stop-color:#E9A86B"></stop> <stop offset="4.000000e-02" style="stop-color:#E79F6D"></stop> <stop offset="0.32" style="stop-color:#E06781"></stop> <stop offset="0.46" style="stop-color:#DD5289"></stop> <stop offset="1" style="stop-color:#553398"></stop> </linearGradient> <path style="fill:url(#SVGID_00000088135346858993645840000016012221151819614123_);" d="M3.5,69.5c1.5,3.7,3.8,7.2,6.8,10.3 C8.4,77,6.6,74.1,5.6,71c-0.9-3.1-0.8-6.5,1.1-9.1c1.9-2.6,5.9-4,9.4-2.8c-4-0.3-7.4,2.5-8.4,5.7c-1,3.3,0,6.9,1.5,10.1 c1.9,4,4.5,7.8,7.9,11.1c-2-1.1-3.9-2.4-5.5-3.9c4.9,5.8,10.9,11,17.6,15.2c-1.5-0.9-3.6-1.4-5.2-2.3c-1.5-0.8-3-1.8-4.4-2.8 c-2.7-1.9-5.1-4.1-7.2-6.5C7.9,81,4.8,75.4,3.5,69.5L3.5,69.5z"></path> <linearGradient id="SVGID_00000126285356069481969930000003731443789987441314_" gradientUnits="userSpaceOnUse" x1="109.5217" y1="71.7898" x2="122.4123" y2="71.7898" gradientTransform="matrix(1 0 0 -1 0 184)"> <stop offset="0" style="stop-color:#E9A86B"></stop> <stop offset="4.000000e-02" style="stop-color:#E79F6D"></stop> <stop offset="0.32" style="stop-color:#E06781"></stop> <stop offset="0.46" style="stop-color:#DD5289"></stop> <stop offset="1" style="stop-color:#553398"></stop> </linearGradient> <path style="fill:url(#SVGID_00000126285356069481969930000003731443789987441314_);" d="M118.3,114.1c-1.3,1.1-2.9,1.8-4.6,2.4 c-1.4,0.5-2.8,0.8-4.2,1.1c4,0.7,8.3-0.7,11.1-3.5c0.7-0.7,1.3-1.5,1.6-2.5c0.5-1.8-0.4-3.7-1.7-5c0.3,0.3,0.2,3.2,0.1,3.8 C120.5,111.8,119.4,113.2,118.3,114.1L118.3,114.1z"></path> </g> </svg> 