<?xml version="1.0" encoding="UTF-8"?> <!-- Generator: Adobe Illustrator 28.0.0, SVG Export Plug-In . SVG Version: 6.00 Build 0) --> <svg xmlns="http://www.w3.org/2000/svg" xmlns:xlink="http://www.w3.org/1999/xlink" id="Capa_2" x="0px" y="0px" viewBox="0 0 1466.7 252.3" style="enable-background:new 0 0 1466.7 252.3;" xml:space="preserve"> <g id="OBJECTS"> <g> <path d="M156.7,6.7c3.4,0,4.9,1.8,4.9,4.8v29.9c0,3-1.5,4.8-4.9,4.8h-35.5v194.7c0,3.3-1.5,4.8-4.9,4.8H84.5 c-3.1,0-4.9-1.5-4.9-4.8V46.1H44.1c-3.1,0-4.9-1.8-4.9-4.8V11.5c0-3,1.8-4.8,4.9-4.8H156.7L156.7,6.7z"></path> <path d="M180,49.7c0-28.1,15.3-43,44.1-43h34.3c28.8,0,44.1,14.9,44.1,43v152.9c0,28.1-15.3,43-44.1,43h-34.3 c-28.8,0-44.1-14.9-44.1-43L180,49.7L180,49.7z M250.7,207.1c8,0,12.2-3.9,12.2-11.9V57.2c0-7.8-4.3-11.9-12.2-11.9h-17.7 c-8,0-12.2,4.2-12.2,11.9v137.9c0,8.1,4.3,11.9,12.2,11.9L250.7,207.1L250.7,207.1z"></path> <path d="M458.8,122.6c0,20-7.6,33.1-22.3,39.4l21.1,78.2c0.9,3.6-0.9,5.4-4.3,5.4h-31.8c-3.1,0-4.6-1.5-5.2-4.2l-20.5-75.8h-21.1 v75.2c0,3-1.8,4.8-4.9,4.8h-31.8c-3.1,0-4.9-1.8-4.9-4.8V11.5c0-3,1.8-4.8,4.9-4.8h76.8c28.8,0,44.1,14.9,44.1,43L458.8,122.6 L458.8,122.6z M404.9,126.2c8,0,12.2-4.2,12.2-11.9V58.1c0-7.8-4.3-11.9-12.2-11.9h-30.3v80C374.6,126.2,404.9,126.2,404.9,126.2z "></path> <path d="M615.2,6.7c3.1,0,4.9,1.8,4.9,4.8v229.3c0,3-1.8,4.8-4.9,4.8h-30.3c-2.8,0-4.6-1.2-5.5-3.9l-46.8-127.5H531v126.6 c0,3-1.5,4.8-4.9,4.8h-31.8c-3.1,0-4.9-1.8-4.9-4.8V11.5c0-3,1.8-4.8,4.9-4.8h30.3c2.8,0,4.6,1.2,5.5,3.9l46.5,126.9h1.8v-126 c0-3,1.5-4.8,4.9-4.8H615.2z"></path> <path d="M765.8,245.6c-2.8,0-4.3-1.5-4.9-4.2l-8.6-43.6h-54.5l-8.3,43.6c-0.6,2.7-2.1,4.2-4.9,4.2h-32.8c-3.4,0-4.9-1.8-4-5.1 l50.8-229.6c0.6-3,2.5-4.2,5.2-4.2h42.5c2.8,0,4.6,1.2,5.2,4.2l50.8,229.6c0.6,3.3-0.6,5.1-4.3,5.1L765.8,245.6L765.8,245.6z M725.1,59l-19.6,104.2h39.2L725.1,59L725.1,59z"></path> <path d="M823.9,11.5c0-3,1.5-4.8,4.9-4.8h73.5c28.8,0,44.1,15.2,44.1,43.3v152.6c0,28.1-15.3,43-44.1,43h-73.5 c-3.4,0-4.9-1.5-4.9-4.8V11.5z M893.7,206.2c8,0,12.2-3.9,12.2-11.9V58.4c0-8.1-4.3-12.2-12.2-12.2h-28.2v160L893.7,206.2 L893.7,206.2z"></path> <path d="M977,49.7c0-28.1,15.3-43,44.1-43h34.3c28.8,0,44.1,14.9,44.1,43v152.9c0,28.1-15.3,43-44.1,43H1021 c-28.8,0-44.1-14.9-44.1-43L977,49.7L977,49.7z M1047.7,207.1c8,0,12.2-3.9,12.2-11.9V57.2c0-7.8-4.3-11.9-12.2-11.9h-17.7 c-8,0-12.2,4.2-12.2,11.9v137.9c0,8.1,4.3,11.9,12.2,11.9L1047.7,207.1L1047.7,207.1z"></path> <path d="M1321.6,245.6c-2.8,0-4.3-1.5-4.9-4.2l-8.6-43.6h-54.5l-8.3,43.6c-0.6,2.7-2.1,4.2-4.9,4.2h-32.8c-3.4,0-4.9-1.8-4-5.1 l50.8-229.6c0.6-3,2.5-4.2,5.2-4.2h42.5c2.8,0,4.6,1.2,5.2,4.2l50.8,229.6c0.6,3.3-0.6,5.1-4.3,5.1H1321.6L1321.6,245.6z M1280.9,59l-19.6,104.2h39.2L1280.9,59L1280.9,59z"></path> <path d="M1422.6,6.7c3.1,0,4.9,1.8,4.9,4.8v229.3c0,3-1.8,4.8-4.9,4.8h-31.8c-3.4,0-4.9-1.8-4.9-4.8V11.5c0-3,1.5-4.8,4.9-4.8 H1422.6z"></path> </g> </g> </svg> 